<svg width="24" height="24" xmlns="http://www.w3.org/2000/svg">

 <g>
  <title>background</title>
  <rect fill="none" id="canvas_background" height="402" width="582" y="-1" x="-1"/>
 </g>
 <g>
  <title>Layer 1</title>
  <path id="svg_1" fill="#ffffff" d="m6.30147,15.5771c-1.52315,-1.3087 -2.61107,-2.8045 -3.12145,-3.5771c0.51038,-0.7726 1.5983,-2.26842 3.12145,-3.57706c1.57255,-1.35109 3.51427,-2.42294 5.69853,-2.42294c2.1843,0 4.1261,1.07185 5.6986,2.42294c1.5232,1.30864 2.6111,2.80446 3.1215,3.57706c-0.5104,0.7726 -1.5983,2.2684 -3.1215,3.5771c-1.5725,1.3511 -3.5143,2.4229 -5.6986,2.4229c-2.18426,0 -4.12598,-1.0718 -5.69853,-2.4229zm5.69853,-11.5771c-2.85246,0 -5.24283,1.39462 -7.00188,2.90595c-1.76544,1.51681 -2.99055,3.23165 -3.53425,4.06385c-0.41081,0.6287 -0.41081,1.4317 0,2.0604c0.5437,0.8322 1.76881,2.547 3.53425,4.0639c1.75905,1.5113 4.14942,2.9059 7.00188,2.9059c2.8525,0 5.2429,-1.3946 7.002,-2.9059c1.7654,-1.5169 2.9905,-3.2317 3.5342,-4.0639c0.4108,-0.6287 0.4108,-1.4317 0,-2.0604c-0.5437,-0.8322 -1.7688,-2.54704 -3.5342,-4.06385c-1.7591,-1.51133 -4.1495,-2.90595 -7.002,-2.90595zm-2,8c0,-1.1046 0.8955,-2 2,-2c1.1046,0 2,0.8954 2,2c0,1.1046 -0.8954,2 -2,2c-1.1045,0 -2,-0.8954 -2,-2zm2,-4c-2.2091,0 -3.99996,1.79086 -3.99996,4c0,2.2091 1.79086,4 3.99996,4c2.2092,0 4,-1.7909 4,-4c0,-2.20914 -1.7908,-4 -4,-4z" clip-rule="evenodd" fill-rule="evenodd"/>
 </g>
</svg>