<svg width="24" height="24" xmlns="http://www.w3.org/2000/svg">

 <g>
  <title>background</title>
  <rect fill="none" id="canvas_background" height="26" width="26" y="-1" x="-1"/>
 </g>
 <g>
  <title>Layer 1</title>
  <path id="svg_1" fill="#ffffff" d="m19.7071,5.70711c0.3905,-0.39053 0.3905,-1.02369 0,-1.41422c-0.3905,-0.39052 -1.0237,-0.39052 -1.4142,0l-4.2609,4.26093c-0.5955,-0.35189 -1.2902,-0.55382 -2.032,-0.55382c-2.20914,0 -4,1.79086 -4,4c0,0.7418 0.20193,1.4365 0.55382,2.032l-4.26093,4.2609c-0.39052,0.3905 -0.39052,1.0237 0,1.4142c0.39053,0.3905 1.02369,0.3905 1.41422,0l4.26092,-4.2609c0.59547,0.3519 1.29017,0.5538 2.03197,0.5538c2.2091,0 4,-1.7909 4,-4c0,-0.7418 -0.2019,-1.4365 -0.5538,-2.03197l4.2609,-4.26092zm-7.1891,4.36059c-0.1652,-0.0441 -0.3388,-0.0677 -0.518,-0.0677c-1.1046,0 -2,0.8954 -2,2c0,0.1792 0.0236,0.3528 0.0677,0.518l2.4503,-2.4503zm-1.036,3.8646l2.4503,-2.4503c0.0441,0.1652 0.0677,0.3388 0.0677,0.518c0,1.1046 -0.8954,2 -2,2c-0.1792,0 -0.3528,-0.0236 -0.518,-0.0677zm4.2831,-9.1116c-1.1364,-0.50021 -2.3976,-0.8207 -3.7651,-0.8207c-2.85246,0 -5.24283,1.39462 -7.00188,2.90595c-1.76544,1.51681 -2.99055,3.23165 -3.53425,4.06385c-0.41081,0.6287 -0.41081,1.4317 0,2.0604c0.45889,0.7024 1.40319,2.0335 2.74807,3.3437l1.41432,-1.4143c-1.17076,-1.1367 -2.01482,-2.3065 -2.44624,-2.9596c0.51038,-0.7726 1.5983,-2.26842 3.12145,-3.57706c1.57255,-1.35109 3.51427,-2.42294 5.69853,-2.42294c0.7719,0 1.5135,0.13385 2.2193,0.36658l1.5458,-1.54588zm-3.7651,13.1793c-0.7718,0 -1.5134,-0.1339 -2.21917,-0.3666l-1.54587,1.5459c1.1364,0.5002 2.39764,0.8207 3.76504,0.8207c2.8525,0 5.2429,-1.3946 7.002,-2.9059c1.7654,-1.5169 2.9905,-3.2317 3.5342,-4.0639c0.4108,-0.6287 0.4108,-1.4317 0,-2.0604c-0.4589,-0.7024 -1.4032,-2.03353 -2.7481,-3.34369l-1.4143,1.41432c1.1708,1.13667 2.0149,2.30647 2.4463,2.95957c-0.5104,0.7726 -1.5983,2.2684 -3.1215,3.5771c-1.5725,1.3511 -3.5143,2.4229 -5.6986,2.4229z" clip-rule="evenodd" fill-rule="evenodd"/>
 </g>
</svg>