<svg height="800px" width="800px" version="1.1" id="Layer_1" xmlns="http://www.w3.org/2000/svg" xmlns:xlink="http://www.w3.org/1999/xlink" 
	 viewBox="0 0 511.999 511.999" xml:space="preserve">
<polygon style="fill:#FF6761;" points="294.378,8.17 312.451,41.363 279.879,90.831 279.879,8.17 "/>
<polygon style="fill:#FF9387;" points="279.879,8.17 296.59,58.15 256.218,100.886 199.549,41.363 217.611,8.17 "/>
<path style="fill:#BE2A45;" d="M312.451,41.363c-4.063,0.425-8.05,1.111-11.939,2.048l-17.387,122.826
	c22.397-9.456,39.173-30.611,39.173-58.891c0-38.956,0-66.495,0-66.495C318.965,40.851,315.686,41.025,312.451,41.363z"/>
<path style="fill:#E43349;" d="M300.511,43.411c0,7.68,0,31.962,0,63.935c0,28.28-7.44,49.435-17.386,58.891L256,68.423l0.218-0.218
	C268.212,56.211,283.441,47.474,300.511,43.411z"/>
<path style="fill:#FF3B3B;" d="M199.549,41.361c21.994,2.299,41.701,12.212,56.451,27.06c16.776,16.885,27.125,40.154,27.125,65.852
	v31.962c-8.443,3.584-17.68,5.49-27.125,5.49c-34.467,0-66.299-25.437-66.299-64.381c0-38.956,0-66.495,0-66.495
	C193.035,40.849,196.314,41.023,199.549,41.361z"/>
<polygon style="fill:#FF6761;" points="86.484,39.835 117.713,61.122 111.306,120.003 73.583,46.451 "/>
<polygon style="fill:#FF9387;" points="73.583,46.451 111.261,83.298 94.841,139.748 17.253,112.645 18.177,74.869 "/>
<path style="fill:#BE2A45;" d="M117.713,61.122c-3.422,2.232-6.656,4.662-9.689,7.271l40.582,117.224
	c15.614-18.635,20.886-45.115,7.981-70.278c-17.777-34.662-30.345-59.167-30.345-59.167
	C123.276,57.694,120.438,59.345,117.713,61.122z"/>
<path style="fill:#E43349;" d="M108.023,68.393c3.504,6.834,14.587,28.44,29.177,56.889c12.906,25.163,15.94,47.383,11.406,60.335
	l-68.774-74.655l0.095-0.293C85.125,94.523,94.69,79.799,108.023,68.393z"/>
<path style="fill:#FF3B3B;" d="M17.252,112.643c20.619-7.992,42.678-8.165,62.578-1.684c22.633,7.368,42.46,23.35,54.188,46.216
	l14.587,28.44c-5.876,7.042-13.226,12.954-21.63,17.264c-30.669,15.729-70.6,7.622-88.373-27.03
	c-17.777-34.662-30.345-59.166-30.345-59.166C11.223,115.161,14.22,113.82,17.252,112.643z"/>
<polygon style="fill:#FF6761;" points="493.813,74.863 494.746,112.647 443.188,141.798 480.911,68.246 "/>
<polygon style="fill:#FF9387;" points="480.911,68.246 472.971,120.345 417.546,139.947 394.287,61.122 425.506,39.83 "/>
<path style="fill:#BE2A45;" d="M494.746,112.647c-3.81-1.476-7.67-2.685-11.558-3.626l-71.523,101.355
	c24.244,1.807,48.826-9.361,61.732-34.524c17.777-34.662,30.345-59.167,30.345-59.167
	C500.775,115.163,497.778,113.822,494.746,112.647z"/>
<path style="fill:#E43349;" d="M483.188,109.02c-3.504,6.834-14.587,28.44-29.177,56.889
	c-12.906,25.163-29.181,40.592-42.346,44.467l20.503-99.413l0.293-0.095C448.606,105.669,466.143,104.845,483.188,109.02z"/>
<path style="fill:#FF3B3B;" d="M394.288,61.12c18.521,12.082,31.533,29.896,37.88,49.839c7.221,22.681,5.811,48.107-5.916,70.973
	l-14.587,28.44c-9.147-0.663-18.237-3.183-26.641-7.494c-30.669-15.729-47.384-52.89-29.611-87.542
	c17.777-34.662,30.345-59.167,30.345-59.167C388.725,57.692,391.562,59.343,394.288,61.12z"/>
<path style="fill:#7BFFCD;" d="M372.18,272.874c7.941,5.076,15.534,10.676,22.724,16.722
	c-0.011,0.011-111.67,143.425-111.67,143.425l-30.48,6.046L372.18,272.874z"/>
<path style="fill:#CAFFEB;" d="M324.499,250.063c16.918,5.654,32.91,13.356,47.681,22.811
	c-30.241,50.797-71.157,119.514-97.639,164.014l-40.328,17.92L324.499,250.063z"/>
<path style="fill:#6CDFB4;" d="M256,238.965c-52.899,0-101.365,19.031-138.905,50.634c0.011,0.011,111.67,143.425,111.67,143.425
	l21.38,15.636l74.353-198.594C302.973,242.864,279.944,238.965,256,238.965z"/>
<polygon style="fill:#5DC09A;" points="283.234,433.021 288.006,464.068 256,485.855 223.995,464.068 228.766,433.021 "/>
<polygon style="fill:#6CDFB4;" points="288.006,464.068 294.128,503.83 217.872,503.83 223.995,464.068 "/>
<path d="M511.456,114.142c-0.67-2.046-2.12-3.744-4.035-4.726c-1.544-0.792-3.106-1.532-4.676-2.241l-0.815-32.515
	c-0.075-2.99-1.778-5.701-4.439-7.066l-68.304-35.032c-2.664-1.365-5.859-1.167-8.329,0.519l-26.875,18.314
	c-1.492-0.863-3.002-1.699-4.545-2.49c-4.017-2.059-8.938-0.474-10.999,3.542l-30.341,59.157
	c-19.185,37.406-2.355,75.681,26.086,94.416l-23.49,45.799c-7.398-3.451-14.979-6.494-22.704-9.118
	c-0.218-0.105-0.44-0.204-0.671-0.291c-0.437-0.163-0.878-0.278-1.321-0.363c-19.89-6.548-40.718-10.322-61.875-11.096v-51.525
	c33.856-3.691,66.299-30.052,66.299-72.092l-0.001-65.226c-0.001-9.164-7.334-9.428-8.17-9.428c-1.735,0-3.462,0.054-5.183,0.141
	L301.504,4.26C300.072,1.634,297.322,0,294.33,0h-76.764c-2.991,0-5.744,1.635-7.176,4.263l-15.555,28.56
	c-1.721-0.087-3.448-0.142-5.181-0.142c-4.513,0-8.17,3.658-8.17,8.17v66.484c0,42.04,32.442,68.401,66.297,72.092v51.525
	c-30.103,1.102-59.554,8.265-86.573,20.865l-23.489-45.797c28.441-18.735,45.271-57.01,26.087-94.416l-30.198-58.876
	c-2.491-4.856-7.562-5.613-11.143-3.823c-1.544,0.792-3.056,1.629-4.548,2.49l-26.881-18.31c-2.472-1.683-5.666-1.882-8.328-0.517
	L14.406,67.599c-2.661,1.365-4.365,4.076-4.439,7.068l-0.806,32.511c-1.571,0.708-3.132,1.447-4.674,2.238
	c-4.015,2.059-5.6,6.984-3.542,10.998l30.341,59.157c9.384,18.296,25.174,31.282,44.462,36.566
	c6.43,1.762,13.025,2.633,19.629,2.633c9.411,0,18.836-1.78,27.817-5.274l23.476,45.772c-12.3,6.868-23.991,14.908-34.878,24.072
	c-3.381,2.845-3.877,7.849-1.162,11.298c1.353,1.736,76.122,97.775,102.526,131.688c-2.112,1.477-3.497,3.923-3.497,6.696
	c0,4.512,3.657,8.17,8.17,8.17h1.37l-9.446,61.396c-0.362,2.356,0.322,4.753,1.875,6.562c1.552,1.809,3.817,2.85,6.201,2.85h76.255
	c2.384,0,4.649-1.041,6.201-2.85c1.552-1.809,2.236-4.206,1.875-6.562l-9.448-61.395h1.37c4.513,0,8.17-3.658,8.17-8.17
	c0-2.772-1.385-5.219-3.497-6.696l102.539-131.704c2.697-3.464,2.174-8.44-1.184-11.268c-10.884-9.167-22.575-17.209-34.874-24.079
	l23.478-45.776c8.98,3.494,18.405,5.274,27.818,5.274c6.603,0,13.198-0.873,19.628-2.633c19.289-5.283,35.08-18.27,44.463-36.566
	l28.099-54.787C512.013,118.368,512.519,117.382,511.456,114.142z M26.181,79.924l59.668-30.602l17.721,12.069
	C90.87,71.978,80.977,85.505,74.69,101.033c-16.259-3.933-33.055-3.775-49.041,0.339L26.181,79.924z M80.064,200.377
	c-10.48-2.87-24.927-10.104-34.24-28.262l-26.432-51.537c37.913-15.024,82.327-0.812,104.024,34.486
	c2.365,3.845,7.397,5.044,11.239,2.682c3.843-2.363,5.045-7.395,2.682-11.239c-11.169-18.169-27.612-32.19-47.08-40.362
	c6.596-15.699,17.628-28.887,31.842-38.153c0.266-0.174,0.492-0.333,0.728-0.484c5.033,9.812,14.575,28.417,26.44,51.552
	c16.058,31.31-0.644,63.509-26.068,76.548C109.806,202.479,94.082,204.217,80.064,200.377z M222.419,16.34h67.059l10.259,18.826
	c-16.13,3.625-31.106,11.146-43.786,22.094c-12.671-10.919-27.688-18.443-43.791-22.078L222.419,16.34z M197.826,107.335V49.416
	c40.593,3.935,73.626,36.85,76.823,78.158c0.349,4.499,4.277,7.867,8.777,7.516c4.499-0.349,7.863-4.278,7.514-8.776
	c-1.646-21.263-9.878-41.242-23.471-57.398c13.243-11.134,29.381-17.885,46.613-19.509v57.929c0,35.189-29.555,56.217-58.128,56.217
	S197.826,142.523,197.826,107.335z M284.559,495.66H227.35l8.379-54.468h20.175c0.076,0,20.274,0,20.274,0L284.559,495.66z
	 M279.195,424.851h-11.458l24.389-65.142c1.583-4.226-0.561-8.934-4.787-10.517c-4.229-1.582-8.933,0.561-10.516,4.787
	l-26.534,70.872h-17.576c-70.118-90.062-95.258-122.353-104.293-133.956c10.165-7.913,21.008-14.824,32.367-20.675
	c0.186-0.078,0.374-0.15,0.556-0.244c0.173-0.089,0.337-0.191,0.5-0.29c28.959-14.71,61.216-22.557,94.11-22.557
	c19.686,0,39.14,2.817,57.796,8.225l-25.466,68.019c-1.583,4.226,0.561,8.934,4.787,10.517c0.944,0.353,1.912,0.521,2.864,0.521
	c3.309,0,6.423-2.026,7.652-5.307l25.677-68.583c7.11,2.682,14.073,5.75,20.855,9.197c0.148,0.088,0.292,0.179,0.448,0.258
	c0.167,0.086,0.339,0.15,0.508,0.223c11.374,5.858,22.232,12.778,32.407,20.706L279.195,424.851z M426.049,49.318l59.668,30.602
	l0.536,21.433c-16.007-4.135-32.765-4.277-49.044-0.322c-6.292-15.497-16.221-29.046-28.89-39.63L426.049,49.318z M466.083,172.115
	c-9.313,18.159-23.76,25.392-34.241,28.262c-14.016,3.84-29.741,2.102-43.137-4.768c-25.425-13.04-42.126-45.237-26.067-76.548
	l26.432-51.537c34.325,22.026,48.694,66.388,32.688,104.604c-1.743,4.162,0.218,8.949,4.38,10.692
	c4.159,1.743,8.948-0.218,10.692-4.379c8.239-19.672,10.031-41.205,5.31-61.784c16.863-3.864,34.302-2.509,50.379,3.912
	C487.487,130.382,477.945,148.985,466.083,172.115z"/>
</svg>