<svg width="24" height="24" xmlns="http://www.w3.org/2000/svg">

 <g>
  <title>background</title>
  <rect fill="none" id="canvas_background" height="402" width="582" y="-1" x="-1"/>
 </g>
 <g>
  <title>Layer 1</title>
  <path id="svg_1" fill="#ffffff" d="m18.71,10l2.69,0c0.88,0 1.6,0.72 1.6,1.6l0,0.8c0,0.88 -0.72,1.6 -1.6,1.6l-2.69,0c-0.14,0.47 -0.32,0.91 -0.55,1.33l1.9,1.9c0.62,0.62 0.62,1.64 0,2.26l-0.57,0.57c-0.62,0.62 -1.64,0.62 -2.26,0l-1.9,-1.9c-0.42,0.23 -0.86,0.41 -1.33,0.55l0,2.69c0,0.88 -0.72,1.6 -1.6,1.6l-0.8,0c-0.88,0 -1.6,-0.72 -1.6,-1.6l0,-2.69a6.77,6.77 0 0 1 -1.33,-0.55l-1.9,1.9c-0.62,0.62 -1.64,0.62 -2.26,0l-0.57,-0.57c-0.62,-0.62 -0.62,-1.64 0,-2.26l1.9,-1.9a6.77,6.77 0 0 1 -0.55,-1.33l-2.69,0c-0.88,0 -1.6,-0.72 -1.6,-1.6l0,-0.8c0,-0.88 0.72,-1.6 1.6,-1.6l2.69,0c0.14,-0.47 0.32,-0.91 0.55,-1.33l-1.9,-1.9c-0.62,-0.62 -0.62,-1.64 0,-2.26l0.57,-0.57c0.62,-0.62 1.64,-0.62 2.26,0l1.9,1.9c0.42,-0.23 0.86,-0.41 1.33,-0.55l0,-2.69c0,-0.88 0.72,-1.6 1.6,-1.6l0.8,0c0.88,0 1.6,0.72 1.6,1.6l0,2.69c0.47,0.14 0.91,0.32 1.33,0.55l1.9,-1.9c0.62,-0.62 1.64,-0.62 2.26,0l0.57,0.57c0.62,0.62 0.62,1.64 0,2.26l-1.9,1.9c0.23,0.42 0.41,0.86 0.55,1.33zm-2.71,2a4,4 0 1 1 -8,0a4,4 0 0 1 8,0z" clip-rule="evenodd" fill-rule="evenodd"/>
 </g>
</svg>