<svg version="1.1" id="Layer_1" xmlns="http://www.w3.org/2000/svg" xmlns:xlink="http://www.w3.org/1999/xlink" 
	 viewBox="0 0 511.998 511.998" xml:space="preserve">
<path style="fill:#FF6761;" d="M190.637,134.574l65.362,369.255c0,0,236.936-128.757,236.936-305.809v-63.447H190.637z"/>
<path style="fill:#FF9387;" d="M19.063,134.574v63.447c0,177.052,236.936,305.809,236.936,305.809V134.574H19.063z"/>
<path style="fill:#CB2E3E;" d="M366.526,8.17c-3.78,0-7.527,0.163-11.22,0.501l-99.263,431.692
	c3.649-1.994,236.893-130.124,236.893-305.784C492.935,64.763,436.343,8.17,366.526,8.17z"/>
<path style="fill:#FF3B3B;" d="M355.305,8.671c52.714,5.632,94.055,59.85,94.055,125.908c0,175.518-190.05,303.594-193.318,305.784
	c-0.044,0.022-236.98-128.741-236.98-305.784c0-69.817,56.592-126.41,126.41-126.41c47.594,0,88.979,26.352,110.527,65.22
	C275.836,37.616,312.482,12.441,355.305,8.671z"/>
<polygon style="fill:#FFB751;" points="234.212,158.72 255.999,297.924 291.403,318.156 291.403,158.72 "/>
<g>
	<polygon style="fill:#FFD764;" points="220.595,158.72 220.595,318.156 255.999,297.924 255.999,158.72 	"/>
	<path style="fill:#FFD764;" d="M136.302,102.19c0,0-16.473,24.322-16.473,60.731s16.473,60.731,16.473,60.731
		c37.673,7.242,84.293-25.325,84.293-25.325l21.787-35.405l-21.787-35.405C220.595,127.514,173.975,94.948,136.302,102.19z"/>
</g>
<path style="fill:#FFB751;" d="M375.698,102.193c-7.081-1.362-14.488-1.318-21.831-0.349l0.044,0.349v121.453l-0.044,0.349
	c7.342,0.97,14.75,1.013,21.831-0.349c0,0,16.471-24.315,16.471-60.721C392.169,126.508,375.698,102.193,375.698,102.193z"/>
<path style="fill:#FFD764;" d="M353.911,102.193c0,0,16.471,24.315,16.471,60.732c0,36.406-16.471,60.721-16.471,60.721
	l-0.044,0.349c-31.733-4.194-62.464-25.665-62.464-25.665l-21.787-35.404l21.787-35.415c0,0,30.731-21.471,62.464-25.665
	L353.911,102.193z"/>
<rect x="220.595" y="127.51" style="fill:#FF973E;" width="70.809" height="70.809"/>
<path d="M366.531,0c-44.312,0-85.537,21.897-110.532,57.941C231.003,21.897,189.779,0,145.467,0
	C71.263,0,10.893,60.37,10.893,134.574v63.447c0,41.888,12.848,84.51,38.189,126.684c20.056,33.38,47.957,66.566,82.928,98.635
	c59.151,54.246,117.355,86.179,120.066,87.654c0.286,0.157,0.585,0.293,0.891,0.416c0.069,0.027,0.137,0.05,0.205,0.075
	c0.227,0.084,0.458,0.158,0.693,0.221c0.086,0.023,0.172,0.046,0.258,0.066c0.228,0.053,0.46,0.096,0.695,0.13
	c0.081,0.012,0.161,0.027,0.243,0.037c0.308,0.035,0.621,0.058,0.938,0.058c0.317,0,0.63-0.023,0.938-0.058
	c0.082-0.01,0.161-0.025,0.243-0.037c0.235-0.034,0.467-0.076,0.695-0.13c0.087-0.021,0.172-0.044,0.258-0.066
	c0.236-0.063,0.466-0.137,0.693-0.221c0.069-0.025,0.137-0.048,0.205-0.075c0.306-0.123,0.606-0.259,0.892-0.416
	c2.711-1.475,60.914-33.409,120.066-87.654c34.971-32.069,62.871-65.255,82.928-98.635c25.342-42.174,38.19-84.796,38.19-126.684
	v-63.447C501.105,60.37,440.735,0,366.531,0z M28.606,220.662c5.539,13.553,12.364,27.098,20.476,40.597
	c20.056,33.38,47.957,66.567,82.928,98.635c50.875,46.655,101.049,76.807,115.82,85.27v44.445
	c-20.208-12.218-62.84-39.807-105.032-78.546C94.635,366.844,38.035,299.381,28.606,220.662z M369.201,411.063
	c-42.192,38.739-84.824,66.328-105.032,78.546v-44.443c17.044-9.759,80.978-48.227,138.628-107.372
	c3.149-3.231,3.083-8.403-0.148-11.553c-3.234-3.152-8.407-3.083-11.554,0.148c-55.602,57.043-118.945,95.289-135.098,104.608
	c-14.043-8.092-63.716-38-112.944-83.146c-52.837-48.455-115.82-124.789-115.82-213.278c0-65.194,53.039-118.234,118.234-118.234
	c42.907,0,82.522,23.38,103.386,61.016c1.44,2.597,4.176,4.209,7.146,4.209s5.705-1.611,7.146-4.209
	C284.009,39.72,323.624,16.34,366.531,16.34c65.195,0,118.234,53.04,118.234,118.234c0,55.391-24.201,111.911-71.932,167.989
	c-2.926,3.436-2.511,8.593,0.926,11.518c3.435,2.925,8.593,2.509,11.517-0.926c26.062-30.62,45.451-61.5,58.107-92.407
	C473.921,299.431,417.345,366.86,369.201,411.063z"/>
<path d="M377.237,94.167c-36.226-6.963-78.241,18.581-88.322,25.178h-65.834c-10.083-6.596-52.109-32.141-88.321-25.178
	c-2.128,0.41-4.007,1.647-5.222,3.441c-0.73,1.077-17.879,26.84-17.879,65.313s17.149,64.234,17.879,65.313
	c1.216,1.794,3.095,3.033,5.222,3.441c4.28,0.822,8.636,1.191,13.015,1.191c24.665,0,49.918-11.702,64.65-19.946v105.237
	c0,2.912,1.55,5.605,4.069,7.067c2.52,1.462,5.628,1.473,8.154,0.027l31.352-17.915l31.351,17.915
	c1.256,0.718,2.655,1.076,4.053,1.076c1.417,0,2.833-0.368,4.101-1.104c2.52-1.462,4.069-4.154,4.069-7.067V212.92
	c14.733,8.244,39.983,19.945,64.649,19.945c4.377,0,8.738-0.369,13.015-1.191c2.128-0.409,4.007-1.647,5.222-3.441
	c0.73-1.078,17.879-26.84,17.879-65.313s-17.149-64.234-17.879-65.313C381.244,95.814,379.365,94.575,377.237,94.167z
	 M228.765,135.684h54.468v27.214c0,0.042,0,27.256,0,27.256h-54.468V135.684z M141.352,216.169
	c-3.961-7.149-13.353-26.885-13.353-53.248c0-26.376,9.401-46.117,13.352-53.248c27.608-3.256,60.476,15.608,71.073,22.269v22.809
	h-24.511c-4.513,0-8.17,3.658-8.17,8.17c0,4.512,3.657,8.17,8.17,8.17h24.511V193.9
	C201.822,200.562,168.958,219.421,141.352,216.169z M260.052,290.831c-1.255-0.718-2.655-1.076-4.053-1.076
	s-2.797,0.359-4.054,1.076l-23.181,13.246v-97.581h19.064v58.747c0,4.512,3.657,8.17,8.17,8.17c4.513,0,8.17-3.658,8.17-8.17
	v-58.747h19.064v97.581L260.052,290.831z M370.646,216.169c-27.602,3.253-60.466-15.604-71.072-22.269v-22.81h24.51
	c4.513,0,8.17-3.658,8.17-8.17s-3.657-8.17-8.17-8.17h-24.51v-22.81c10.603-6.665,43.463-25.524,71.071-22.268
	c3.961,7.149,13.353,26.885,13.353,53.248C383.998,189.295,374.597,209.038,370.646,216.169z"/>
</svg>