<svg height="800px" width="800px" version="1.1" id="Layer_1" xmlns="http://www.w3.org/2000/svg" xmlns:xlink="http://www.w3.org/1999/xlink" 
	 viewBox="0 0 512 512" xml:space="preserve">
<polygon style="fill:#FFC5BB;" points="318.569,117.347 333.547,310.709 318.569,504.071 57.122,504.071 57.122,117.347 "/>
<polygon style="fill:#FFA4A9;" points="351.249,117.347 373.037,310.709 351.249,504.071 318.569,504.071 318.569,117.347 "/>
<polygon style="fill:#FF6288;" points="351.249,117.347 351.249,504.071 424.781,482.283 402.994,117.347 "/>
<polygon style="fill:#E44670;" points="402.994,117.347 402.994,482.283 454.739,504.071 454.739,117.347 "/>
<polygon style="fill:#FFC5BB;" points="402.994,460.496 351.249,504.071 454.739,504.071 "/>
<path style="fill:#E44670;" d="M248.645,223.767c-2.069,0-4.101,0.127-6.1,0.369l-38.289,173.481
	c2.889-1.595,95.249-52.882,95.249-122.991C299.505,246.539,276.733,223.767,248.645,223.767z"/>
<path style="fill:#FF6288;" d="M242.544,224.136c19.076,3.05,33.853,24.494,33.853,50.49c0,69.936-69.635,121.153-72.142,122.991
	c-0.046,0.023-0.07,0.035-0.07,0.035s-95.319-51.808-95.319-123.025c0-28.087,22.761-50.86,50.848-50.86
	c19.156,0,35.794,10.606,44.471,26.238C211.916,236.059,226,226.112,242.544,224.136z"/>
<path d="M462.979,117.106c0-4.512-3.658-8.17-8.17-8.17H392.17V84.426C392.17,37.873,354.296,0,307.745,0
	c-8.511,0-16.918,1.267-24.989,3.765c-4.311,1.334-6.724,5.91-5.389,10.22s5.912,6.724,10.22,5.389
	c6.505-2.013,13.287-3.034,20.158-3.034c37.542,0,68.085,30.544,68.085,68.085v24.511h-87.149V84.426
	C288.681,37.873,250.808,0,204.255,0S119.83,37.873,119.83,84.426v24.511H57.191c-4.512,0-8.17,3.658-8.17,8.17V503.83
	c0,4.512,3.658,8.17,8.17,8.17h397.617c0.291,0,0.577-0.016,0.859-0.046c0.029-0.003,0.059-0.01,0.088-0.013
	c0.256-0.029,0.509-0.069,0.756-0.122c0.059-0.012,0.115-0.031,0.174-0.045c0.216-0.051,0.43-0.107,0.639-0.174
	c0.085-0.027,0.168-0.062,0.253-0.093c0.178-0.064,0.354-0.13,0.526-0.206c0.102-0.045,0.202-0.096,0.302-0.145
	c0.149-0.073,0.296-0.148,0.44-0.23c0.108-0.061,0.214-0.127,0.319-0.194c0.133-0.084,0.263-0.17,0.389-0.261
	c0.103-0.074,0.205-0.149,0.305-0.228c0.13-0.102,0.255-0.21,0.378-0.32c0.087-0.077,0.174-0.154,0.259-0.235
	c0.15-0.146,0.292-0.3,0.431-0.458c0.043-0.048,0.089-0.089,0.131-0.138c0.153-0.186,0.271-0.349,0.389-0.512
	c0.04-0.057,0.086-0.11,0.124-0.167c0.139-0.206,0.268-0.419,0.389-0.637c0.01-0.017,0.022-0.034,0.032-0.052
	c0.127-0.233,0.243-0.474,0.346-0.721c0.05-0.12,0.088-0.242,0.133-0.363c0.048-0.13,0.1-0.256,0.142-0.389
	c0.078-0.255,0.145-0.512,0.198-0.771c0.005-0.028,0.009-0.058,0.014-0.087c0.046-0.236,0.084-0.475,0.109-0.714
	c0.008-0.071,0.007-0.144,0.012-0.215c0.015-0.198,0.029-0.398,0.031-0.596C462.979,503.83,462.979,117.106,462.979,117.106z
	 M446.638,486.268l-35.404-29.814V149.787c0-4.512-3.658-8.17-8.17-8.17c-4.512,0-8.17,3.658-8.17,8.17v306.667l-35.404,29.814
	V125.277h87.149V486.268z M403.064,470.936l29.358,24.723h-58.717L403.064,470.936z M136.17,84.426
	c0-37.542,30.544-68.085,68.085-68.085s68.085,30.544,68.085,68.085v24.511H239.66V84.426c0-8.812,1.675-17.41,4.977-25.555
	c1.696-4.181-0.319-8.946-4.501-10.642c-4.182-1.696-8.946,0.32-10.642,4.501c-4.097,10.105-6.174,20.769-6.174,31.696v24.511
	H136.17V84.426z M65.362,125.277h277.787V495.66H65.362V125.277z"/>
<path d="M248.829,215.149c-17.267,0-33.466,7.562-44.573,20.316c-11.107-12.753-27.306-20.316-44.573-20.316
	c-32.613,0-59.145,26.533-59.145,59.145c0,75.391,95.743,128.286,99.818,130.501c1.217,0.661,2.559,0.991,3.901,0.991
	s2.684-0.33,3.901-0.991c4.075-2.215,99.818-55.111,99.818-130.501C307.975,241.681,281.442,215.149,248.829,215.149z
	 M204.255,388.168c-17.454-10.486-87.379-56.121-87.379-113.874c0-23.603,19.202-42.804,42.804-42.804
	c15.531,0,29.874,8.465,37.428,22.094c1.44,2.597,4.176,4.209,7.146,4.209c2.971,0,5.706-1.611,7.146-4.209
	c7.555-13.628,21.897-22.094,37.428-22.094c23.603,0,42.804,19.202,42.804,42.804C291.634,332.048,221.709,377.682,204.255,388.168z
	"/>
</svg>