<svg width="1920" height="1920" xmlns="http://www.w3.org/2000/svg">

    <g>
        <title>background</title>
        <rect fill="none" id="canvas_background" height="1922" width="1922" y="-1" x="-1" />
    </g>
    <g>
        <title>Layer 1</title>
        <path
        fill="#ffffff"
         id="svg_1" fill-rule="evenodd"
            d="m621.452,435.678c0,-186.858 152.004,-338.862 338.862,-338.862c159.316,0 293.306,110.504 329.336,258.896l-565.299,807.048c-63.433,-61.62 -102.899,-147.78 -102.899,-242.994l0,-484.088zm46.834,807.122c-88.168,-79.79 -143.65,-195.06 -143.65,-323.033l0,-484.088c0,-240.204 195.475,-435.679 435.679,-435.679c176.955,0 329.645,106.09 397.775,257.997l180.71,-257.997l92.38,64.669l-1297.799,1852.811l-92.381,-64.67l305.287,-435.84c-131.873,-115.44 -215.287,-284.95 -215.287,-473.559l0,-233.427l96.818,0l0,233.427c0,155.809 67.319,296.239 174.392,393.719l66.076,-94.33zm292.028,15.83c-9.387,0 -18.687,-0.39 -27.883,-1.14l-62.071,88.62c29.036,6.12 59.127,9.34 89.955,9.34c240.205,0 435.675,-195.48 435.675,-435.683l0,-324.082l-96.81,138.223l0,185.858c0,186.854 -152.01,338.864 -338.866,338.864zm-162.996,191.75l-57.715,82.4c54.294,20.4 112.13,33.5 172.305,38.1l0,252.3l-242.047,0l0,96.82l580.909,0l0,-96.82l-242.044,0l0,-252.3c324.464,-24.8 580.904,-296.76 580.904,-627.469l0,-233.427l-96.82,0l0,233.427c0,293.549 -238.94,532.499 -532.495,532.499c-56.824,0 -111.602,-8.96 -162.997,-25.53z" />
    </g>
</svg>