<svg width="1920" height="1920" xmlns="http://www.w3.org/2000/svg">

 <g>
  <title>background</title>
  <rect fill="none" id="canvas_background" height="402" width="582" y="-1" x="-1"/>
 </g>
 <g>
  <title>Layer 1</title>
  <path fill="#ffffff" id="svg_1" fill-rule="evenodd" d="m960.315,96.818c-186.858,0 -338.862,152.003 -338.862,338.861l0,484.088c0,186.858 152.004,338.862 338.862,338.862c186.858,0 338.861,-152.004 338.861,-338.862l0,-484.087c0,-186.858 -152.003,-338.861 -338.861,-338.861m-532.497,613.164l0,233.427c0,293.551 238.946,532.497 532.497,532.497c293.55,0 532.496,-238.946 532.496,-532.497l0,-233.427l96.818,0l0,233.427c0,330.707 -256.438,602.668 -580.9,627.471l-0.006,252.301l242.044,0l0,96.818l-580.905,0l0,-96.818l242.043,0l-0.004,-252.3c-324.463,-24.805 -580.901,-296.766 -580.901,-627.472l0,-233.427l96.818,0zm532.497,-709.983c240.204,0 435.679,195.475 435.679,435.68l0,484.087c0,240.205 -195.475,435.68 -435.68,435.68c-240.204,0 -435.679,-195.475 -435.679,-435.68l0,-484.087c0,-240.205 195.475,-435.68 435.68,-435.68z"/>
 </g>
</svg>